<svg width="208" height="199" viewBox="0 0 208 199" fill="none" xmlns="http://www.w3.org/2000/svg">
<path d="M41 48V51.5V51.6464C41 51.8728 41.0899 52.0899 41.25 52.25L41.3232 52.3232C41.4364 52.4364 41.5899 52.5 41.75 52.5C41.9101 52.5 42.0636 52.4364 42.1768 52.3232L42.3593 52.1407C42.4525 52.0475 42.5601 51.9699 42.678 51.911L44.5 51L48 49L54.5 46L58.2287 44.1357C59.0752 43.7124 59.9506 43.3498 60.8484 43.0505L65.5 41.5L74 39.5L78.5 38.5L87.5 37.5L95.5 37L111 37.5H120.5L128.068 38.2967C129.353 38.4319 130.622 38.6913 131.856 39.0712L136.5 40.5L145.5 43L151.652 45.0505C152.549 45.3498 153.425 45.7124 154.271 46.1357L157 47.5L159.67 48.8349C160.554 49.2768 161.383 49.8195 162.143 50.4521L163.716 51.7632C163.904 51.9197 164.119 52.0397 164.351 52.1169L165.015 52.3382C165.312 52.4374 165.64 52.3599 165.862 52.1382C165.953 52.0473 166.021 51.9365 166.062 51.8146L166.5 50.5L167 48L168 40L169 31.5L171 21.5L173.515 12.6959C173.837 11.5721 174.33 10.5049 174.978 9.53242L175.944 8.08338C176.631 7.05391 177.623 6.26625 178.782 5.83182L179.057 5.72877C180.304 5.26107 181.683 5.29289 182.908 5.81759C183.941 6.26043 184.802 7.02805 185.359 8.0041L187.372 11.5256C188.121 12.8362 188.695 14.2393 189.079 15.6991L191 23L193 37L194.5 48L196 57L198 67.5L199 77L200.5 89L202 98.5L203 107L203.5 115V126L203 134L202 140.5L200.444 146.336C200.148 147.443 199.759 148.523 199.278 149.564L197 154.5L193.73 160.223C193.244 161.073 192.696 161.887 192.091 162.657L188.534 167.184C187.846 168.06 187.086 168.877 186.261 169.626L182 173.5L174.5 179L168.351 182.617C166.791 183.535 165.113 184.236 163.364 184.703L158.5 186L151 187.5L145.5 189L137.5 191L131 192.5L126.5 193.5L123 194L121.633 194.228C120.546 194.409 119.446 194.5 118.345 194.5H113.5H101.5H94.5H88H82.4214C81.475 194.5 80.5298 194.433 79.5929 194.299L74 193.5L66 192L59 190.5L54 189L48 186.5L43.5 184.5L37 181.5L31.5 178L27.2691 174.923C26.4243 174.309 25.629 173.629 24.8904 172.89L21.5 169.5L18.5 166L15.5 161.5L13.4036 158.505C12.4714 157.173 11.7049 155.733 11.1214 154.216L9.5 150L8.08821 146.894C7.36585 145.305 6.85465 143.628 6.56767 141.906L6 138.5L5.47626 136.143C5.1597 134.719 5 133.264 5 131.805V125.5V120.5L5.5 116L6 109.5L6.5 102.5L7 97.5L8 87.5L8.5 82L9.5 74.5L10.5 69L11.5 60L12.5 52.5L14 42L15 35.5L16.5 27.5L18.5 19.5L19.8947 13.9214C20.2965 12.3141 20.9075 10.7665 21.7121 9.31819L22.654 7.62276C22.8836 7.2096 23.1695 6.83045 23.5037 6.49625L23.6954 6.30456C24.2219 5.7781 24.8815 5.40461 25.6039 5.22404C26.1939 5.07652 26.8094 5.06188 27.4058 5.18116L27.5654 5.21309C28.5008 5.40017 29.3599 5.85995 30.0345 6.53448L30.8879 7.38792C31.6235 8.1235 32.2231 8.98344 32.6591 9.92797L34.3219 13.5308C34.7732 14.5087 35.1448 15.5214 35.4331 16.5591L37.5 24L39 33L40.5 41.5L41 48Z" fill="#07426E" stroke="black" stroke-width="9"/>
<path d="M35 152.686V159.216L35.3714 170.649C35.7218 181.437 44.568 190 55.3609 190H151C162.046 190 171 181.046 171 170V163.413V153.618V136.36V119.569V116.77L170.5 112.106L169.5 106.975L168.844 104.223C168.615 103.261 168.315 102.316 167.946 101.398L167 99.0459L163.5 92.0495L160.5 87.3852L158 84.1201L153.5 78.0565L149 73.3922L142.5 68.2615L139.553 66.123C138.52 65.3737 137.418 64.7249 136.262 64.1856L133 62.6643L126.5 60.3322L122 58.9329L120.241 58.5227C118.752 58.1754 117.228 58 115.699 58H112H104.5H100H96.3498C95.1192 58 93.8913 58.1136 92.6816 58.3393L89.5 58.9329L84 60.3322L77.5 62.6643L72 64.9965L66.5 68.2615L58.5 73.3922L54.7132 76.6037C53.5746 77.5692 52.5478 78.6592 51.6518 79.8532L49.5 82.7208L44 90.1837L41.4951 94.1896C40.8332 95.2481 40.2718 96.3664 39.8183 97.5296L38.5 100.912L36.5087 106.856C36.1701 107.867 35.9129 108.903 35.7394 109.955L35.2666 112.822C35.0891 113.898 35 114.986 35 116.076V124.233V131.696V143.823V152.686Z" fill="black"/>
<path d="M89 163L99 165C101.965 165.659 105.037 165.671 108.007 165.034L142.567 157.629C144.517 157.211 146.506 157 148.5 157H148.882C149.617 157 150.342 157.171 151 157.5L152.5 158.5L154 159.5L156.5 161.5L159 163.5L162 166L164 168L165.409 169.69C166.132 170.558 166.714 171.534 167.133 172.583C167.377 173.193 167.565 173.824 167.694 174.469L167.741 174.703C167.913 175.565 168 176.443 168 177.323V179.5C168 181.389 167.111 183.167 165.6 184.3L163.521 185.859C162.514 186.614 161.387 187.194 160.187 187.575L148.323 191.337C143.782 192.776 139.128 193.829 134.41 194.485L123.5 196H110H96.2763C90.7682 196 85.2695 195.545 79.8364 194.639L73 193.5L40.9334 185.012C39.7937 184.71 39 183.679 39 182.5V181V178.5V177.249C39 176.419 39.1017 175.593 39.3029 174.789C39.4341 174.264 39.6071 173.75 39.8202 173.253L41 170.5L42.5 168C43.828 166.34 45.3606 164.855 47.0612 163.579L48.5 162.5L53 159L54.5 158L54.7111 157.894C55.8875 157.306 57.1847 157 58.5 157C59.1655 157 59.8299 157.055 60.4864 157.164L62.5 157.5L65 158L73 159.5L80 161L89 163Z" fill="#FBD09D"/>
<path d="M74.3402 132.663L46.0962 124.463C45.0954 124.173 44.0159 124.387 43.2021 125.038L42.7809 125.375C42.2873 125.77 42 126.368 42 127V128.5V128.91C42 129.634 42.0888 130.355 42.2643 131.057C42.421 131.684 42.6457 132.291 42.9346 132.869L43.5524 134.105C44.1824 135.365 44.9437 136.555 45.8236 137.655L46.5 138.5L46.759 138.759C47.9153 139.915 49.209 140.925 50.6112 141.767L51 142L54.5 143.5L55.3067 143.73C57.0935 144.241 58.9428 144.5 60.8011 144.5H62.5L67 144L69.0838 143.653C69.6928 143.551 70.2891 143.384 70.8624 143.155L71.0334 143.087C72.001 142.7 72.8895 142.111 73.6264 141.374C74.2002 140.8 74.685 140.13 75.0479 139.404C75.3479 138.804 75.5667 138.167 75.6983 137.509L75.8885 136.557C75.9627 136.187 76 135.81 76 135.432V134.873C76 134.626 75.9601 134.38 75.8819 134.146C75.6428 133.428 75.0664 132.874 74.3402 132.663Z" fill="white"/>
<path d="M128.66 132.663L156.904 124.463C157.905 124.173 158.984 124.387 159.798 125.038L160.219 125.375C160.713 125.77 161 126.368 161 127V128.5V128.91C161 129.634 160.911 130.355 160.736 131.057C160.579 131.684 160.354 132.291 160.065 132.869L159.448 134.105C158.818 135.365 158.056 136.555 157.176 137.655L156.5 138.5L156.241 138.759C155.085 139.915 153.791 140.925 152.389 141.767L152 142L148.5 143.5L147.693 143.73C145.906 144.241 144.057 144.5 142.199 144.5H140.5L136 144L133.916 143.653C133.307 143.551 132.711 143.384 132.138 143.155L131.967 143.087C130.999 142.7 130.111 142.111 129.374 141.374C128.8 140.8 128.315 140.13 127.952 139.404C127.652 138.804 127.433 138.167 127.302 137.509L127.111 136.557C127.037 136.187 127 135.81 127 135.432V134.873C127 134.626 127.04 134.38 127.118 134.146C127.357 133.428 127.934 132.874 128.66 132.663Z" fill="white"/>
<path d="M41 48V51.5V51.6464C41 51.8728 41.0899 52.0899 41.25 52.25L41.3232 52.3232C41.4364 52.4364 41.5899 52.5 41.75 52.5C41.9101 52.5 42.0636 52.4364 42.1768 52.3232L42.3593 52.1407C42.4525 52.0475 42.5601 51.9699 42.678 51.911L44.5 51L48 49L54.5 46L58.2287 44.1357C59.0752 43.7124 59.9506 43.3498 60.8484 43.0505L65.5 41.5L74 39.5L78.5 38.5L87.5 37.5L95.5 37L111 37.5H120.5L128.068 38.2967C129.353 38.4319 130.622 38.6913 131.856 39.0712L136.5 40.5L145.5 43L151.652 45.0505C152.549 45.3498 153.425 45.7124 154.271 46.1357L157 47.5L159.67 48.8349C160.554 49.2768 161.383 49.8195 162.143 50.4521L163.716 51.7632C163.904 51.9197 164.119 52.0397 164.351 52.1169L165.015 52.3382C165.312 52.4374 165.64 52.3599 165.862 52.1382C165.953 52.0473 166.021 51.9365 166.062 51.8146L166.5 50.5L167 48L168 40L169 31.5L171 21.5L173.515 12.6959C173.837 11.5721 174.33 10.5049 174.978 9.53242L175.944 8.08338C176.631 7.05391 177.623 6.26625 178.782 5.83182L179.057 5.72877C180.304 5.26107 181.683 5.29289 182.908 5.81759C183.941 6.26043 184.802 7.02805 185.359 8.0041L187.372 11.5256C188.121 12.8362 188.695 14.2393 189.079 15.6991L191 23L193 37L194.5 48L196 57L198 67.5L199 77L200.5 89L202 98.5L203 107L203.5 115V126L203 134L202 140.5L200.444 146.336C200.148 147.443 199.759 148.523 199.278 149.564L197 154.5L193.73 160.223C193.244 161.073 192.696 161.887 192.091 162.657L188.534 167.184C187.846 168.06 187.086 168.877 186.261 169.626L182 173.5L174.5 179L168.351 182.617C166.791 183.535 165.113 184.236 163.364 184.703L158.5 186L151 187.5L145.5 189L137.5 191L131 192.5L126.5 193.5L123 194L121.633 194.228C120.546 194.409 119.446 194.5 118.345 194.5H113.5H101.5H94.5H88H82.4214C81.475 194.5 80.5298 194.433 79.5929 194.299L74 193.5L66 192L59 190.5L54 189L48 186.5L43.5 184.5L37 181.5L31.5 178L27.2691 174.923C26.4243 174.309 25.629 173.629 24.8904 172.89L21.5 169.5L18.5 166L15.5 161.5L13.4036 158.505C12.4714 157.173 11.7049 155.733 11.1214 154.216L9.5 150L8.08821 146.894C7.36585 145.305 6.85465 143.628 6.56767 141.906L6 138.5L5.47626 136.143C5.1597 134.719 5 133.264 5 131.805V125.5V120.5L5.5 116L6 109.5L6.5 102.5L7 97.5L8 87.5L8.5 82L9.5 74.5L10.5 69L11.5 60L12.5 52.5L14 42L15 35.5L16.5 27.5L18.5 19.5L19.8947 13.9214C20.2965 12.3141 20.9075 10.7665 21.7121 9.31819L22.654 7.62276C22.8836 7.2096 23.1695 6.83045 23.5037 6.49625L23.6954 6.30456C24.2219 5.7781 24.8815 5.40461 25.6039 5.22404C26.1939 5.07652 26.8094 5.06188 27.4058 5.18116L27.5654 5.21309C28.5008 5.40017 29.3599 5.85995 30.0345 6.53448L30.8879 7.38792C31.6235 8.1235 32.2231 8.98344 32.6591 9.92797L34.3219 13.5308C34.7732 14.5087 35.1448 15.5214 35.4331 16.5591L37.5 24L39 33L40.5 41.5L41 48Z" stroke="black" stroke-width="9"/>
</svg>
